# Blender v2.93.1 OBJ File: 'backdrop.blend'
# www.blender.org
mtllib backdrop2.mtl
o CU.001
v 0.670959 0.102693 -0.066095
v 0.465961 0.102693 -0.066095
v 0.465961 2.161119 -0.066095
v 0.670959 2.155184 -0.066095
v 0.465961 2.161119 0.004690
v 0.670959 2.155184 0.004690
v 0.465961 0.102693 0.004690
v 0.670959 0.102693 0.004690
v -0.544850 0.102693 -0.066095
v -0.544850 0.102693 0.004690
v -0.544850 2.161119 0.004690
v -0.544850 2.161119 -0.066095
v -0.627996 -0.000002 0.119463
v -0.627996 0.506374 0.119463
v 0.601552 0.506374 0.119463
v 0.601552 -0.000002 0.119463
v -0.627996 0.506374 -0.160990
v 0.601552 0.506374 -0.160990
v -0.627996 -0.000002 -0.160990
v 0.601552 -0.000002 -0.160990
v -0.500167 2.058480 -0.022131
v -0.500167 2.058480 0.119463
v 0.560699 2.058480 0.119463
v 0.560699 2.058480 -0.022131
v 0.524344 -0.000002 0.119463
v 0.524344 -0.000002 -0.022131
v 0.525357 2.093822 -0.022131
v 0.525357 2.093822 0.119463
v -0.463814 -0.000002 -0.022131
v -0.463814 -0.000002 0.119463
v -0.464824 2.093824 0.119463
v -0.464824 2.093824 -0.022131
v -0.468145 2.092086 0.119463
v -0.468145 2.092086 -0.022131
v -0.474845 2.078935 0.119463
v -0.474845 2.078935 -0.022131
v -0.485280 2.068501 0.119463
v -0.485280 2.068501 -0.022131
v -0.498431 2.061800 0.119463
v -0.498431 2.061800 -0.022131
v 0.558962 2.061800 0.119463
v 0.558962 2.061800 -0.022131
v 0.545813 2.068499 0.119463
v 0.545813 2.068499 -0.022131
v 0.535379 2.078936 0.119463
v 0.535379 2.078936 -0.022131
v 0.528675 2.092087 0.119463
v 0.528675 2.092087 -0.022131
v -0.513008 2.221651 -0.022131
v 0.573540 2.221651 -0.022131
v 0.573540 2.221651 0.119463
v -0.513008 2.221651 0.119463
v 0.688527 -0.000002 0.119463
v 0.688527 2.106665 0.119463
v 0.688527 2.106665 -0.022131
v 0.688527 -0.000002 -0.022131
v -0.627996 -0.000002 -0.022131
v -0.627996 2.106665 -0.022131
v -0.627996 2.106665 0.119463
v -0.627996 -0.000002 0.119463
v -0.622368 2.142198 -0.022131
v -0.622368 2.142198 0.119463
v -0.606034 2.174252 -0.022131
v -0.606034 2.174252 0.119463
v -0.580597 2.199691 -0.022131
v -0.580597 2.199691 0.119463
v -0.548543 2.216024 -0.022131
v -0.548543 2.216024 0.119463
v 0.609073 2.216023 -0.022131
v 0.609073 2.216023 0.119463
v 0.641127 2.199691 -0.022131
v 0.641127 2.199691 0.119463
v 0.666568 2.174252 -0.022131
v 0.666568 2.174252 0.119463
v 0.682900 2.142198 -0.022131
v 0.682900 2.142198 0.119463
vt 0.375000 0.000000
vt 0.417153 0.000000
vt 0.417153 0.250000
vt 0.375000 0.250000
vt 0.417153 0.500000
vt 0.375000 0.500000
vt 0.417153 0.750000
vt 0.375000 0.750000
vt 0.417153 1.000000
vt 0.375000 1.000000
vt 0.625000 0.000000
vt 0.875000 0.000000
vt 0.875000 0.250000
vt 0.625000 0.250000
vt 0.125000 0.000000
vt 0.125000 0.250000
vt 0.625000 0.500000
vt 0.625000 0.750000
vt 0.625000 1.000000
vt 0.375000 0.000000
vt 0.375000 0.250000
vt 0.625000 0.250000
vt 0.625000 0.000000
vt 0.375000 0.500000
vt 0.625000 0.500000
vt 0.375000 0.750000
vt 0.625000 0.750000
vt 0.375000 1.000000
vt 0.625000 1.000000
vt 0.875000 0.250000
vt 0.875000 0.000000
vt 0.125000 0.000000
vt 0.125000 0.250000
vt 0.394250 0.497727
vt 0.394250 0.252273
vt 0.605750 0.252273
vt 0.605750 0.497727
vt 0.625000 0.000000
vt 0.875000 0.000000
vt 0.875000 0.240958
vt 0.626883 0.241199
vt 0.125000 0.000000
vt 0.375000 0.000000
vt 0.373117 0.241197
vt 0.125000 0.240958
vt 0.373920 0.245292
vt 0.125000 0.245165
vt 0.375000 0.250000
vt 0.125000 0.250000
vt 0.380763 0.250920
vt 0.380763 0.499080
vt 0.375000 0.500000
vt 0.387291 0.251710
vt 0.387291 0.498290
vt 0.612709 0.251710
vt 0.612709 0.498290
vt 0.619237 0.250920
vt 0.619237 0.499080
vt 0.625000 0.250000
vt 0.625000 0.500000
vt 0.626080 0.245293
vt 0.875000 0.245165
vt 0.875000 0.250000
vt 0.394250 0.497727
vt 0.605750 0.497727
vt 0.605750 0.252273
vt 0.394250 0.252273
vt 0.625000 0.000000
vt 0.626883 0.241199
vt 0.875000 0.240958
vt 0.875000 0.000000
vt 0.125000 0.000000
vt 0.125000 0.240958
vt 0.373117 0.241197
vt 0.375000 0.000000
vt 0.125000 0.245165
vt 0.373920 0.245292
vt 0.125000 0.250000
vt 0.375000 0.250000
vt 0.375000 0.500000
vt 0.380763 0.499080
vt 0.380763 0.250920
vt 0.387291 0.498290
vt 0.387291 0.251710
vt 0.612709 0.498290
vt 0.612709 0.251710
vt 0.619237 0.499080
vt 0.619237 0.250920
vt 0.625000 0.500000
vt 0.625000 0.250000
vt 0.875000 0.250000
vt 0.875000 0.245165
vt 0.626080 0.245293
vn -0.0000 0.0000 -1.0000
vn 0.0289 0.9996 0.0000
vn 0.0000 -0.0000 1.0000
vn -0.0000 -1.0000 0.0000
vn -1.0000 0.0000 0.0000
vn 1.0000 -0.0000 0.0000
vn 0.0000 1.0000 0.0000
vn 1.0000 -0.0005 0.0000
vn -1.0000 -0.0005 0.0000
vn 0.4637 -0.8860 0.0000
vn 0.8910 -0.4539 0.0000
vn 0.7071 -0.7071 0.0000
vn 0.4540 -0.8910 0.0000
vn 0.8862 -0.4633 0.0000
vn -0.8861 -0.4635 0.0000
vn -0.4539 -0.8910 0.0000
vn -0.7072 -0.7070 0.0000
vn -0.8909 -0.4541 0.0000
vn -0.4633 -0.8862 0.0000
vn 0.9877 -0.1564 0.0000
vn 0.8910 -0.4540 0.0000
vn 0.1564 -0.9877 0.0000
vn -0.1564 -0.9877 0.0000
vn -0.4540 -0.8910 0.0000
vn -0.7071 -0.7071 0.0000
vn -0.8910 -0.4540 0.0000
vn -0.9877 -0.1564 0.0000
usemtl Default_OBJ.001
s off
f 1/1/1 2/2/1 3/3/1 4/4/1
f 4/4/2 3/3/2 5/5/2 6/6/2
f 6/6/3 5/5/3 7/7/3 8/8/3
f 8/8/4 7/7/4 2/9/4 1/10/4
f 9/11/5 10/12/5 11/13/5 12/14/5
f 8/15/6 1/1/6 4/4/6 6/16/6
f 5/5/3 11/17/3 10/18/3 7/7/3
f 2/9/4 7/7/4 10/18/4 9/19/4
f 3/3/1 2/2/1 9/11/1 12/14/1
f 5/5/7 3/3/7 12/14/7 11/17/7
f 13/20/1 14/21/1 15/22/1 16/23/1
f 14/21/4 17/24/4 18/25/4 15/22/4
f 17/24/3 19/26/3 20/27/3 18/25/3
f 19/26/7 13/28/7 16/29/7 20/27/7
f 16/23/5 15/22/5 18/30/5 20/31/5
f 19/32/6 17/33/6 14/21/6 13/20/6
f 21/34/7 22/35/7 23/36/7 24/37/7
f 25/38/8 26/39/8 27/40/8 28/41/8
f 29/42/9 30/43/9 31/44/9 32/45/9
f 31/44/10 33/46/10 34/47/10 32/45/10
f 33/46/11 35/48/11 36/49/11 34/47/11
f 35/48/12 37/50/12 38/51/12 36/52/12
f 37/50/13 39/53/13 40/54/13 38/51/13
f 39/53/14 22/35/14 21/34/14 40/54/14
f 23/36/15 41/55/15 42/56/15 24/37/15
f 41/55/16 43/57/16 44/58/16 42/56/16
f 43/57/17 45/59/17 46/60/17 44/58/17
f 45/59/18 47/61/18 48/62/18 46/63/18
f 47/61/19 28/41/19 27/40/19 48/62/19
f 49/64/4 50/65/4 51/66/4 52/67/4
f 53/68/5 54/69/5 55/70/5 56/71/5
f 57/72/6 58/73/6 59/74/6 60/75/6
f 59/74/20 58/73/20 61/76/20 62/77/20
f 62/77/21 61/76/21 63/78/21 64/79/21
f 64/79/12 63/80/12 65/81/12 66/82/12
f 66/82/13 65/81/13 67/83/13 68/84/13
f 68/84/22 67/83/22 49/64/22 52/67/22
f 51/66/23 50/65/23 69/85/23 70/86/23
f 70/86/24 69/85/24 71/87/24 72/88/24
f 72/88/25 71/87/25 73/89/25 74/90/25
f 74/90/26 73/91/26 75/92/26 76/93/26
f 76/93/27 75/92/27 55/70/27 54/69/27
f 52/67/1 51/66/1 23/36/1 22/35/1
f 50/65/3 49/64/3 21/34/3 24/37/3
f 53/68/7 56/71/7 26/39/7 25/38/7
f 56/71/3 55/70/3 27/40/3 26/39/3
f 54/69/1 53/68/1 25/38/1 28/41/1
f 57/72/7 60/75/7 30/43/7 29/42/7
f 60/75/1 59/74/1 31/44/1 30/43/1
f 58/73/3 57/72/3 29/42/3 32/45/3
f 59/74/1 62/77/1 33/46/1 31/44/1
f 61/76/3 58/73/3 32/45/3 34/47/3
f 62/77/1 64/79/1 35/48/1 33/46/1
f 63/78/3 61/76/3 34/47/3 36/49/3
f 64/79/1 66/82/1 37/50/1 35/48/1
f 65/81/3 63/80/3 36/52/3 38/51/3
f 66/82/1 68/84/1 39/53/1 37/50/1
f 67/83/3 65/81/3 38/51/3 40/54/3
f 68/84/1 52/67/1 22/35/1 39/53/1
f 49/64/3 67/83/3 40/54/3 21/34/3
f 51/66/1 70/86/1 41/55/1 23/36/1
f 69/85/3 50/65/3 24/37/3 42/56/3
f 70/86/1 72/88/1 43/57/1 41/55/1
f 71/87/3 69/85/3 42/56/3 44/58/3
f 72/88/1 74/90/1 45/59/1 43/57/1
f 73/89/3 71/87/3 44/58/3 46/60/3
f 74/90/1 76/93/1 47/61/1 45/59/1
f 75/92/3 73/91/3 46/63/3 48/62/3
f 76/93/1 54/69/1 28/41/1 47/61/1
f 55/70/3 75/92/3 48/62/3 27/40/3
